<svg width="1024" height="1024" viewBox="0 0 1024 1024" fill="none" xmlns="http://www.w3.org/2000/svg">
  <defs>
    <linearGradient id="bgAP4" x1="128" y1="110" x2="902" y2="922" gradientUnits="userSpaceOnUse">
      <stop stop-color="#F8FAFC"/>
      <stop offset="0.5" stop-color="#E2E8F0"/>
      <stop offset="1" stop-color="#CBD5E1"/>
    </linearGradient>
    <radialGradient id="glowAP4" cx="0" cy="0" r="1" gradientUnits="userSpaceOnUse" gradientTransform="translate(714 234) rotate(125) scale(406)">
      <stop stop-color="#FFFFFF" stop-opacity="0.82"/>
      <stop offset="1" stop-color="#FFFFFF" stop-opacity="0"/>
    </radialGradient>
    <linearGradient id="beamAP4" x1="438" y1="368" x2="780" y2="662" gradientUnits="userSpaceOnUse">
      <stop stop-color="#FFFFFF" stop-opacity="0.88"/>
      <stop offset="1" stop-color="#94A3B8" stop-opacity="0.12"/>
    </linearGradient>
    <linearGradient id="deskAP4" x1="262" y1="686" x2="768" y2="786" gradientUnits="userSpaceOnUse">
      <stop stop-color="#334155"/>
      <stop offset="1" stop-color="#1E293B"/>
    </linearGradient>
  </defs>
  <rect x="64" y="64" width="896" height="896" rx="214" fill="url(#bgAP4)"/>
  <rect x="64" y="64" width="896" height="896" rx="214" fill="url(#glowAP4)"/>
  <path d="M434 404L778 334V692L434 624V404Z" fill="url(#beamAP4)"/>
  <rect x="220" y="708" width="584" height="80" rx="40" fill="url(#deskAP4)"/>
  <rect x="254" y="690" width="516" height="30" rx="15" fill="#E2E8F0" fill-opacity="0.28"/>
  <rect x="246" y="272" width="244" height="308" rx="72" fill="#FFFFFF"/>
  <path d="M392 272V350C392 373.196 410.804 392 434 392H490" fill="#E2E8F0"/>
  <path d="M392 272V350C392 373.196 410.804 392 434 392H490" stroke="#94A3B8" stroke-width="18" stroke-linejoin="round"/>
  <rect x="312" y="418" width="120" height="24" rx="12" fill="#64748B"/>
  <rect x="312" y="472" width="152" height="24" rx="12" fill="#64748B"/>
  <path d="M512 708V626" stroke="#1E293B" stroke-width="28" stroke-linecap="round"/>
  <ellipse cx="512" cy="612" rx="44" ry="26" fill="#1E293B"/>
</svg>
