<svg width="1024" height="1024" viewBox="0 0 1024 1024" fill="none" xmlns="http://www.w3.org/2000/svg">
  <defs>
    <linearGradient id="bgAP1" x1="148" y1="110" x2="884" y2="916" gradientUnits="userSpaceOnUse">
      <stop stop-color="#F8FBFF"/>
      <stop offset="0.55" stop-color="#DDEBFF"/>
      <stop offset="1" stop-color="#BBD4FF"/>
    </linearGradient>
    <radialGradient id="glowAP1" cx="0" cy="0" r="1" gradientUnits="userSpaceOnUse" gradientTransform="translate(370 250) rotate(61) scale(338 402)">
      <stop stop-color="#FFFFFF" stop-opacity="0.95"/>
      <stop offset="1" stop-color="#FFFFFF" stop-opacity="0"/>
    </radialGradient>
    <linearGradient id="beamAP1" x1="426" y1="354" x2="752" y2="652" gradientUnits="userSpaceOnUse">
      <stop stop-color="#FFFFFF" stop-opacity="0.92"/>
      <stop offset="1" stop-color="#9EC5FF" stop-opacity="0.12"/>
    </linearGradient>
    <linearGradient id="deskAP1" x1="258" y1="682" x2="758" y2="788" gradientUnits="userSpaceOnUse">
      <stop stop-color="#204F8D"/>
      <stop offset="1" stop-color="#123A66"/>
    </linearGradient>
  </defs>
  <rect x="64" y="64" width="896" height="896" rx="214" fill="url(#bgAP1)"/>
  <rect x="64" y="64" width="896" height="896" rx="214" fill="url(#glowAP1)"/>
  <path d="M420 398L762 330V690L420 622V398Z" fill="url(#beamAP1)"/>
  <rect x="218" y="706" width="588" height="82" rx="41" fill="url(#deskAP1)"/>
  <rect x="252" y="688" width="520" height="32" rx="16" fill="#7FB4FF" fill-opacity="0.32"/>
  <rect x="244" y="266" width="248" height="316" rx="74" fill="#FFFFFF"/>
  <path d="M394 266V346C394 369.196 412.804 388 436 388H492" fill="#DCEBFF"/>
  <path d="M394 266V346C394 369.196 412.804 388 436 388H492" stroke="#8BB5FF" stroke-width="18" stroke-linejoin="round"/>
  <rect x="314" y="412" width="122" height="24" rx="12" fill="#79A9FF"/>
  <rect x="314" y="468" width="154" height="24" rx="12" fill="#79A9FF"/>
  <path d="M512 706V624" stroke="#123A66" stroke-width="28" stroke-linecap="round"/>
  <ellipse cx="512" cy="610" rx="44" ry="26" fill="#123A66"/>
</svg>
