<svg width="1024" height="1024" viewBox="0 0 1024 1024" fill="none" xmlns="http://www.w3.org/2000/svg">
  <defs>
    <linearGradient id="bgAP2" x1="132" y1="110" x2="894" y2="918" gradientUnits="userSpaceOnUse">
      <stop stop-color="#F5FBFF"/>
      <stop offset="0.48" stop-color="#D8F1FF"/>
      <stop offset="1" stop-color="#B9E7FF"/>
    </linearGradient>
    <radialGradient id="haloAP2" cx="0" cy="0" r="1" gradientUnits="userSpaceOnUse" gradientTransform="translate(640 222) rotate(118) scale(420)">
      <stop stop-color="#FFFFFF" stop-opacity="0.75"/>
      <stop offset="1" stop-color="#FFFFFF" stop-opacity="0"/>
    </radialGradient>
    <linearGradient id="beamAP2" x1="446" y1="374" x2="786" y2="664" gradientUnits="userSpaceOnUse">
      <stop stop-color="#FFFFFF" stop-opacity="0.9"/>
      <stop offset="1" stop-color="#67E8F9" stop-opacity="0.12"/>
    </linearGradient>
    <linearGradient id="deskAP2" x1="254" y1="686" x2="772" y2="782" gradientUnits="userSpaceOnUse">
      <stop stop-color="#216D84"/>
      <stop offset="1" stop-color="#155E75"/>
    </linearGradient>
  </defs>
  <rect x="64" y="64" width="896" height="896" rx="214" fill="url(#bgAP2)"/>
  <rect x="64" y="64" width="896" height="896" rx="214" fill="url(#haloAP2)"/>
  <rect x="216" y="706" width="592" height="82" rx="41" fill="url(#deskAP2)"/>
  <rect x="250" y="688" width="524" height="34" rx="17" fill="#A9F2FF" fill-opacity="0.32"/>
  <path d="M436 422L784 354V690L436 624V422Z" fill="url(#beamAP2)"/>
  <rect x="246" y="282" width="240" height="304" rx="72" fill="#FFFFFF"/>
  <rect x="222" y="338" width="196" height="250" rx="58" fill="#FFFFFF" fill-opacity="0.46"/>
  <path d="M394 282V358C394 381.196 412.804 400 436 400H486" fill="#DDF6FF"/>
  <path d="M394 282V358C394 381.196 412.804 400 436 400H486" stroke="#53B7D3" stroke-width="18" stroke-linejoin="round"/>
  <rect x="314" y="424" width="114" height="24" rx="12" fill="#20A9C7"/>
  <rect x="314" y="478" width="146" height="24" rx="12" fill="#20A9C7"/>
  <path d="M512 706V632" stroke="#155E75" stroke-width="28" stroke-linecap="round"/>
  <ellipse cx="512" cy="618" rx="42" ry="24" fill="#155E75"/>
</svg>
