<svg width="1024" height="1024" viewBox="0 0 1024 1024" fill="none" xmlns="http://www.w3.org/2000/svg">
  <defs>
    <linearGradient id="bgC2" x1="180" y1="140" x2="844" y2="888" gradientUnits="userSpaceOnUse">
      <stop stop-color="#132238"/>
      <stop offset="1" stop-color="#1D4ED8"/>
    </linearGradient>
    <linearGradient id="beamC2" x1="560" y1="360" x2="788" y2="646" gradientUnits="userSpaceOnUse">
      <stop stop-color="#FFFFFF" stop-opacity="0.74"/>
      <stop offset="1" stop-color="#93C5FD" stop-opacity="0.06"/>
    </linearGradient>
  </defs>
  <rect x="64" y="64" width="896" height="896" rx="214" fill="url(#bgC2)"/>
  <path d="M562 354L794 278V674L562 598V354Z" fill="url(#beamC2)"/>
  <rect x="252" y="378" width="266" height="266" rx="74" fill="#FFFFFF"/>
  <path d="M416 378V452C416 474.091 433.909 492 456 492H518" fill="#D7E7FF"/>
  <path d="M416 378V452C416 474.091 433.909 492 456 492H518" stroke="#9CBFFF" stroke-width="18" stroke-linejoin="round"/>
  <rect x="320" y="474" width="118" height="24" rx="12" fill="#8CB7FF"/>
  <rect x="320" y="528" width="146" height="24" rx="12" fill="#8CB7FF"/>
  <rect x="260" y="668" width="282" height="58" rx="29" fill="#0F2342" fill-opacity="0.76"/>
  <path d="M402 668V792" stroke="#F1F8FF" stroke-width="26" stroke-linecap="round"/>
  <path d="M336 792H468" stroke="#F1F8FF" stroke-width="26" stroke-linecap="round"/>
</svg>
