<svg width="1024" height="1024" viewBox="0 0 1024 1024" fill="none" xmlns="http://www.w3.org/2000/svg">
  <defs>
    <linearGradient id="bgS3" x1="128" y1="108" x2="900" y2="920" gradientUnits="userSpaceOnUse">
      <stop stop-color="#FEF3C7"/>
      <stop offset="1" stop-color="#FDE68A"/>
    </linearGradient>
  </defs>
  <rect x="64" y="64" width="896" height="896" rx="214" fill="url(#bgS3)"/>
  <circle cx="512" cy="452" r="236" fill="#FFFFFF" fill-opacity="0.55"/>
  <rect x="300" y="662" width="424" height="96" rx="48" fill="#4338CA"/>
  <rect x="366" y="698" width="292" height="22" rx="11" fill="#E9E7FF" fill-opacity="0.7"/>
  <path d="M396 384H554C579.405 384 600 404.595 600 430V584H442C416.595 584 396 563.405 396 538V384Z" fill="#FFFFFF"/>
  <path d="M548 384V438C548 458.987 565.013 476 586 476H640" fill="#DBEAFE"/>
  <path d="M548 384V438C548 458.987 565.013 476 586 476H640" stroke="#6366F1" stroke-width="18" stroke-linejoin="round"/>
  <path d="M470 470L704 422V620L470 572V470Z" fill="#FFFFFF" fill-opacity="0.52"/>
  <path d="M470 470L704 422V620L470 572V470Z" stroke="#8B5CF6" stroke-width="18" stroke-linejoin="round"/>
  <path d="M512 662V584" stroke="#4338CA" stroke-width="28" stroke-linecap="round"/>
</svg>
