<svg width="1024" height="1024" viewBox="0 0 1024 1024" fill="none" xmlns="http://www.w3.org/2000/svg">
  <defs>
    <linearGradient id="bgB" x1="108" y1="110" x2="904" y2="918" gradientUnits="userSpaceOnUse">
      <stop stop-color="#06131F"/>
      <stop offset="0.6" stop-color="#0A84FF"/>
      <stop offset="1" stop-color="#5BE7C4"/>
    </linearGradient>
  </defs>
  <rect x="64" y="64" width="896" height="896" rx="214" fill="url(#bgB)"/>
  <rect x="286" y="276" width="304" height="404" rx="74" fill="#F8FBFF" fill-opacity="0.82"/>
  <rect x="378" y="220" width="360" height="468" rx="84" fill="#FFFFFF"/>
  <path d="M605 220V308C605 331.196 623.804 350 647 350H738" fill="#CFE3FF"/>
  <path d="M605 220V308C605 331.196 623.804 350 647 350H738" stroke="#96BEFF" stroke-width="18" stroke-linejoin="round"/>
  <rect x="452" y="392" width="220" height="26" rx="13" fill="#9CC0FF"/>
  <rect x="452" y="450" width="180" height="26" rx="13" fill="#9CC0FF"/>
  <rect x="452" y="508" width="205" height="26" rx="13" fill="#9CC0FF"/>
  <path d="M280 748C350 670 425 630 512 630C599 630 674 670 744 748" stroke="#CBF8FF" stroke-width="46" stroke-linecap="round"/>
  <path d="M396 744H628" stroke="#E8F7FF" stroke-width="26" stroke-linecap="round"/>
</svg>
