<svg width="1024" height="1024" viewBox="0 0 1024 1024" fill="none" xmlns="http://www.w3.org/2000/svg">
  <defs>
    <linearGradient id="bgR3" x1="132" y1="112" x2="896" y2="920" gradientUnits="userSpaceOnUse">
      <stop stop-color="#FFF7ED"/>
      <stop offset="1" stop-color="#FDE68A"/>
    </linearGradient>
    <linearGradient id="beamR3" x1="452" y1="352" x2="764" y2="666" gradientUnits="userSpaceOnUse">
      <stop stop-color="#FFFFFF" stop-opacity="0.9"/>
      <stop offset="1" stop-color="#FFFFFF" stop-opacity="0.08"/>
    </linearGradient>
  </defs>
  <rect x="64" y="64" width="896" height="896" rx="214" fill="url(#bgR3)"/>
  <rect x="228" y="304" width="252" height="306" rx="72" fill="#FFFFFF"/>
  <path d="M382 304V382C382 405.196 400.804 424 424 424H480" fill="#DBEAFE"/>
  <path d="M382 304V382C382 405.196 400.804 424 424 424H480" stroke="#4F46E5" stroke-width="18" stroke-linejoin="round"/>
  <rect x="290" y="440" width="118" height="24" rx="12" fill="#4F46E5"/>
  <rect x="290" y="496" width="150" height="24" rx="12" fill="#4F46E5"/>
  <path d="M446 384L758 314V692L446 622V384Z" fill="url(#beamR3)"/>
  <rect x="248" y="688" width="528" height="88" rx="44" fill="#4338CA"/>
  <rect x="344" y="720" width="336" height="22" rx="11" fill="#EDE9FE" fill-opacity="0.68"/>
  <circle cx="512" cy="630" r="30" fill="#4338CA"/>
</svg>
