<svg width="1024" height="1024" viewBox="0 0 1024 1024" fill="none" xmlns="http://www.w3.org/2000/svg">
  <defs>
    <linearGradient id="bgN3" x1="130" y1="100" x2="896" y2="926" gradientUnits="userSpaceOnUse">
      <stop stop-color="#FFF8F3"/>
      <stop offset="0.5" stop-color="#FCE7D8"/>
      <stop offset="1" stop-color="#E9D5FF"/>
    </linearGradient>
    <radialGradient id="shineN3" cx="0" cy="0" r="1" gradientUnits="userSpaceOnUse" gradientTransform="translate(294 194) rotate(54) scale(390 492)">
      <stop stop-color="#FFFFFF" stop-opacity="0.95"/>
      <stop offset="1" stop-color="#FFFFFF" stop-opacity="0"/>
    </radialGradient>
    <linearGradient id="deskN3" x1="226" y1="688" x2="798" y2="794" gradientUnits="userSpaceOnUse">
      <stop stop-color="#7C3AED"/>
      <stop offset="1" stop-color="#5B21B6"/>
    </linearGradient>
    <linearGradient id="beamN3" x1="424" y1="404" x2="768" y2="680" gradientUnits="userSpaceOnUse">
      <stop stop-color="#FFFFFF" stop-opacity="0.94"/>
      <stop offset="1" stop-color="#C4B5FD" stop-opacity="0.10"/>
    </linearGradient>
  </defs>
  <rect x="64" y="64" width="896" height="896" rx="214" fill="url(#bgN3)"/>
  <rect x="64" y="64" width="896" height="896" rx="214" fill="url(#shineN3)"/>
  <rect x="216" y="704" width="592" height="86" rx="43" fill="url(#deskN3)"/>
  <rect x="254" y="686" width="516" height="30" rx="15" fill="#E9D5FF" fill-opacity="0.34"/>
  <path d="M418 414L772 342V688L418 622V414Z" fill="url(#beamN3)"/>
  <rect x="246" y="282" width="246" height="308" rx="72" fill="#FFFFFF"/>
  <path d="M392 282V360C392 383.196 410.804 402 434 402H492" fill="#F3E8FF"/>
  <path d="M392 282V360C392 383.196 410.804 402 434 402H492" stroke="#A78BFA" stroke-width="18" stroke-linejoin="round"/>
  <rect x="312" y="428" width="122" height="24" rx="12" fill="#8B5CF6"/>
  <rect x="312" y="482" width="156" height="24" rx="12" fill="#8B5CF6"/>
  <path d="M512 704V626" stroke="#5B21B6" stroke-width="28" stroke-linecap="round"/>
  <ellipse cx="512" cy="614" rx="44" ry="24" fill="#5B21B6"/>
</svg>
