<svg width="1024" height="1024" viewBox="0 0 1024 1024" fill="none" xmlns="http://www.w3.org/2000/svg">
  <defs>
    <linearGradient id="bgF" x1="116" y1="96" x2="920" y2="938" gradientUnits="userSpaceOnUse">
      <stop stop-color="#07111F"/>
      <stop offset="0.58" stop-color="#0A84FF"/>
      <stop offset="1" stop-color="#6EE7F9"/>
    </linearGradient>
    <linearGradient id="panelF" x1="330" y1="214" x2="706" y2="718" gradientUnits="userSpaceOnUse">
      <stop stop-color="#FFFFFF"/>
      <stop offset="1" stop-color="#D9ECFF"/>
    </linearGradient>
  </defs>
  <rect x="64" y="64" width="896" height="896" rx="214" fill="url(#bgF)"/>
  <rect x="244" y="214" width="536" height="596" rx="126" fill="#FFFFFF" fill-opacity="0.12" stroke="#D9F4FF" stroke-width="18"/>
  <rect x="342" y="262" width="340" height="500" rx="70" fill="url(#panelF)"/>
  <path d="M558 262V344C558 367.196 576.804 386 600 386H682" fill="#CBE0FF"/>
  <path d="M558 262V344C558 367.196 576.804 386 600 386H682" stroke="#92BCFF" stroke-width="18" stroke-linejoin="round"/>
  <rect x="420" y="432" width="184" height="28" rx="14" fill="#94BDFF"/>
  <rect x="420" y="494" width="146" height="28" rx="14" fill="#94BDFF"/>
  <rect x="420" y="556" width="176" height="28" rx="14" fill="#94BDFF"/>
  <path d="M344 784C394 706 448 662 512 662C576 662 630 706 680 784" stroke="#DDF7FF" stroke-width="30" stroke-linecap="round"/>
</svg>
