<svg width="1024" height="1024" viewBox="0 0 1024 1024" fill="none" xmlns="http://www.w3.org/2000/svg">
  <defs>
    <linearGradient id="bgR4" x1="128" y1="112" x2="900" y2="918" gradientUnits="userSpaceOnUse">
      <stop stop-color="#F0FDFA"/>
      <stop offset="1" stop-color="#BAE6FD"/>
    </linearGradient>
    <linearGradient id="beamR4" x1="430" y1="360" x2="772" y2="684" gradientUnits="userSpaceOnUse">
      <stop stop-color="#FFFFFF" stop-opacity="0.9"/>
      <stop offset="1" stop-color="#67E8F9" stop-opacity="0.08"/>
    </linearGradient>
  </defs>
  <rect x="64" y="64" width="896" height="896" rx="214" fill="url(#bgR4)"/>
  <rect x="230" y="286" width="246" height="300" rx="70" fill="#FFFFFF"/>
  <path d="M378 286V364C378 387.196 396.804 406 420 406H476" fill="#DDF6FF"/>
  <path d="M378 286V364C378 387.196 396.804 406 420 406H476" stroke="#0891B2" stroke-width="18" stroke-linejoin="round"/>
  <rect x="292" y="424" width="114" height="24" rx="12" fill="#0891B2"/>
  <rect x="292" y="478" width="146" height="24" rx="12" fill="#0891B2"/>
  <path d="M438 372L768 304V696L438 628V372Z" fill="url(#beamR4)"/>
  <rect x="238" y="688" width="548" height="90" rx="45" fill="#155E75"/>
  <rect x="340" y="722" width="344" height="22" rx="11" fill="#CFFAFE" fill-opacity="0.7"/>
</svg>
