<svg width="1024" height="1024" viewBox="0 0 1024 1024" fill="none" xmlns="http://www.w3.org/2000/svg">
  <defs>
    <linearGradient id="bgS5" x1="128" y1="112" x2="900" y2="920" gradientUnits="userSpaceOnUse">
      <stop stop-color="#F5F3FF"/>
      <stop offset="1" stop-color="#DDD6FE"/>
    </linearGradient>
  </defs>
  <rect x="64" y="64" width="896" height="896" rx="214" fill="url(#bgS5)"/>
  <rect x="248" y="238" width="528" height="548" rx="146" fill="#FFFFFF" fill-opacity="0.68"/>
  <rect x="304" y="678" width="416" height="78" rx="39" fill="#4C1D95"/>
  <path d="M390 358H518C541.196 358 560 376.804 560 400V542H432C408.804 542 390 523.196 390 500V358Z" fill="#FFFFFF"/>
  <path d="M520 358V408C520 427.33 535.67 443 555 443H600" fill="#E9D5FF"/>
  <path d="M520 358V408C520 427.33 535.67 443 555 443H600" stroke="#7C3AED" stroke-width="18" stroke-linejoin="round"/>
  <path d="M476 446L660 402V568L476 524V446Z" fill="#EDE9FE"/>
  <path d="M476 446L660 402V568L476 524V446Z" stroke="#7C3AED" stroke-width="18" stroke-linejoin="round"/>
  <path d="M512 678V590" stroke="#4C1D95" stroke-width="28" stroke-linecap="round"/>
  <rect x="364" y="708" width="296" height="18" rx="9" fill="#E9D5FF" fill-opacity="0.7"/>
</svg>
