<svg width="1024" height="1024" viewBox="0 0 1024 1024" fill="none" xmlns="http://www.w3.org/2000/svg">
  <defs>
    <linearGradient id="bgR1" x1="140" y1="116" x2="884" y2="912" gradientUnits="userSpaceOnUse">
      <stop stop-color="#F1F5F9"/>
      <stop offset="1" stop-color="#CBD5E1"/>
    </linearGradient>
    <linearGradient id="beamR1" x1="450" y1="360" x2="736" y2="640" gradientUnits="userSpaceOnUse">
      <stop stop-color="#FFFFFF" stop-opacity="0.92"/>
      <stop offset="1" stop-color="#BFDBFE" stop-opacity="0.06"/>
    </linearGradient>
  </defs>
  <rect x="64" y="64" width="896" height="896" rx="214" fill="url(#bgR1)"/>
  <path d="M446 384L740 304V688L446 608V384Z" fill="url(#beamR1)"/>
  <rect x="228" y="310" width="252" height="308" rx="72" fill="#FFFFFF"/>
  <path d="M382 310V390C382 413.196 400.804 432 424 432H480" fill="#DCEBFF"/>
  <path d="M382 310V390C382 413.196 400.804 432 424 432H480" stroke="#7DA7F7" stroke-width="18" stroke-linejoin="round"/>
  <rect x="292" y="448" width="120" height="24" rx="12" fill="#7DA7F7"/>
  <rect x="292" y="504" width="154" height="24" rx="12" fill="#7DA7F7"/>
  <rect x="248" y="694" width="528" height="78" rx="39" fill="#153A66"/>
  <rect x="334" y="724" width="356" height="18" rx="9" fill="#DCEBFF" fill-opacity="0.55"/>
  <path d="M512 694V628" stroke="#153A66" stroke-width="26" stroke-linecap="round"/>
  <circle cx="512" cy="612" r="34" fill="#153A66"/>
</svg>
