<svg width="1024" height="1024" viewBox="0 0 1024 1024" fill="none" xmlns="http://www.w3.org/2000/svg">
  <defs>
    <linearGradient id="bgFN3" x1="126" y1="110" x2="902" y2="920" gradientUnits="userSpaceOnUse">
      <stop stop-color="#ECFEFF"/>
      <stop offset="1" stop-color="#CFFAFE"/>
    </linearGradient>
    <linearGradient id="beamFN3" x1="510" y1="378" x2="804" y2="676" gradientUnits="userSpaceOnUse">
      <stop stop-color="#FFFFFF" stop-opacity="0.94"/>
      <stop offset="1" stop-color="#67E8F9" stop-opacity="0.08"/>
    </linearGradient>
  </defs>
  <rect x="64" y="64" width="896" height="896" rx="214" fill="url(#bgFN3)"/>
  <rect x="208" y="698" width="608" height="88" rx="44" fill="#155E75"/>
  <rect x="240" y="330" width="210" height="264" rx="62" fill="#FFFFFF" fill-opacity="0.84"/>
  <rect x="292" y="282" width="230" height="292" rx="70" fill="#FFFFFF"/>
  <path d="M432 282V358C432 380.091 449.909 398 472 398H522" fill="#DDF6FF"/>
  <path d="M432 282V358C432 380.091 449.909 398 472 398H522" stroke="#0891B2" stroke-width="18" stroke-linejoin="round"/>
  <rect x="340" y="422" width="110" height="24" rx="12" fill="#0891B2"/>
  <rect x="340" y="476" width="144" height="24" rx="12" fill="#0891B2"/>
  <path d="M498 398L810 332V688L498 622V398Z" fill="url(#beamFN3)"/>
  <rect x="320" y="724" width="384" height="18" rx="9" fill="#CFFAFE" fill-opacity="0.7"/>
</svg>
