<svg width="1024" height="1024" viewBox="0 0 1024 1024" fill="none" xmlns="http://www.w3.org/2000/svg">
  <defs>
    <linearGradient id="bgN1" x1="120" y1="96" x2="896" y2="928" gradientUnits="userSpaceOnUse">
      <stop stop-color="#F7FBFF"/>
      <stop offset="0.45" stop-color="#DCEBFF"/>
      <stop offset="1" stop-color="#BFD6FF"/>
    </linearGradient>
    <radialGradient id="shineN1" cx="0" cy="0" r="1" gradientUnits="userSpaceOnUse" gradientTransform="translate(320 188) rotate(52) scale(408 514)">
      <stop stop-color="#FFFFFF" stop-opacity="0.98"/>
      <stop offset="1" stop-color="#FFFFFF" stop-opacity="0"/>
    </radialGradient>
    <linearGradient id="beamN1" x1="424" y1="382" x2="770" y2="664" gradientUnits="userSpaceOnUse">
      <stop stop-color="#FFFFFF" stop-opacity="0.94"/>
      <stop offset="1" stop-color="#93C5FD" stop-opacity="0.08"/>
    </linearGradient>
    <linearGradient id="deskN1" x1="226" y1="688" x2="798" y2="798" gradientUnits="userSpaceOnUse">
      <stop stop-color="#325B92"/>
      <stop offset="1" stop-color="#173A66"/>
    </linearGradient>
  </defs>
  <rect x="64" y="64" width="896" height="896" rx="214" fill="url(#bgN1)"/>
  <rect x="64" y="64" width="896" height="896" rx="214" fill="url(#shineN1)"/>
  <rect x="216" y="704" width="592" height="86" rx="43" fill="url(#deskN1)"/>
  <rect x="254" y="686" width="516" height="30" rx="15" fill="#A7C9FF" fill-opacity="0.34"/>
  <path d="M418 406L770 334V688L418 620V406Z" fill="url(#beamN1)"/>
  <rect x="246" y="274" width="246" height="312" rx="72" fill="#FFFFFF"/>
  <path d="M392 274V354C392 377.196 410.804 396 434 396H492" fill="#DCEBFF"/>
  <path d="M392 274V354C392 377.196 410.804 396 434 396H492" stroke="#89B2FF" stroke-width="18" stroke-linejoin="round"/>
  <rect x="312" y="422" width="122" height="24" rx="12" fill="#6EA0FF"/>
  <rect x="312" y="476" width="156" height="24" rx="12" fill="#6EA0FF"/>
  <path d="M512 704V624" stroke="#173A66" stroke-width="28" stroke-linecap="round"/>
  <ellipse cx="512" cy="612" rx="44" ry="24" fill="#173A66"/>
</svg>
