<svg width="1024" height="1024" viewBox="0 0 1024 1024" fill="none" xmlns="http://www.w3.org/2000/svg">
  <defs>
    <linearGradient id="bgC3" x1="512" y1="64" x2="512" y2="960" gradientUnits="userSpaceOnUse">
      <stop stop-color="#14263E"/>
      <stop offset="1" stop-color="#173251"/>
    </linearGradient>
    <linearGradient id="beamC3" x1="564" y1="354" x2="794" y2="648" gradientUnits="userSpaceOnUse">
      <stop stop-color="#FFFFFF" stop-opacity="0.66"/>
      <stop offset="1" stop-color="#BFDBFE" stop-opacity="0.04"/>
    </linearGradient>
  </defs>
  <rect x="64" y="64" width="896" height="896" rx="214" fill="url(#bgC3)"/>
  <path d="M562 354L794 274V676L562 596V354Z" fill="url(#beamC3)"/>
  <rect x="252" y="378" width="266" height="266" rx="74" fill="#F9FBFF"/>
  <path d="M416 378V452C416 474.091 433.909 492 456 492H518" fill="#D4E6FF"/>
  <path d="M416 378V452C416 474.091 433.909 492 456 492H518" stroke="#98BEFF" stroke-width="18" stroke-linejoin="round"/>
  <rect x="320" y="474" width="118" height="24" rx="12" fill="#92BBFF"/>
  <rect x="320" y="528" width="146" height="24" rx="12" fill="#92BBFF"/>
  <rect x="260" y="668" width="282" height="58" rx="29" fill="#10233E" fill-opacity="0.82"/>
  <path d="M402 668V792" stroke="#EDF7FF" stroke-width="26" stroke-linecap="round"/>
  <path d="M336 792H468" stroke="#EDF7FF" stroke-width="26" stroke-linecap="round"/>
</svg>
