<svg width="1024" height="1024" viewBox="0 0 1024 1024" fill="none" xmlns="http://www.w3.org/2000/svg">
  <defs>
    <linearGradient id="bgS2" x1="120" y1="110" x2="906" y2="922" gradientUnits="userSpaceOnUse">
      <stop stop-color="#0F172A"/>
      <stop offset="1" stop-color="#2563EB"/>
    </linearGradient>
  </defs>
  <rect x="64" y="64" width="896" height="896" rx="214" fill="url(#bgS2)"/>
  <path d="M278 688L510 560L744 688L510 818L278 688Z" fill="#11335D"/>
  <path d="M278 688L510 560L744 688L510 818L278 688Z" stroke="#BEE3FF" stroke-width="18" stroke-linejoin="round"/>
  <path d="M392 418L620 364L620 610L392 664V418Z" fill="#FFFFFF"/>
  <path d="M392 418L620 364L620 610L392 664V418Z" stroke="#A6CBFF" stroke-width="18" stroke-linejoin="round"/>
  <path d="M620 364L694 418V664L620 610V364Z" fill="#CFE3FF"/>
  <path d="M392 418L466 472V718L392 664V418Z" fill="#E8F2FF"/>
  <path d="M464 494L752 426L752 662L464 730V494Z" fill="#FFFFFF" fill-opacity="0.24"/>
  <path d="M464 494L752 426L752 662L464 730V494Z" stroke="#D6EEFF" stroke-width="18" stroke-linejoin="round"/>
</svg>
