<svg width="1024" height="1024" viewBox="0 0 1024 1024" fill="none" xmlns="http://www.w3.org/2000/svg">
  <defs>
    <linearGradient id="bgR2" x1="150" y1="116" x2="888" y2="906" gradientUnits="userSpaceOnUse">
      <stop stop-color="#EFF6FF"/>
      <stop offset="1" stop-color="#BFDBFE"/>
    </linearGradient>
    <linearGradient id="beamR2" x1="396" y1="348" x2="760" y2="680" gradientUnits="userSpaceOnUse">
      <stop stop-color="#FFFFFF" stop-opacity="0.88"/>
      <stop offset="1" stop-color="#60A5FA" stop-opacity="0.08"/>
    </linearGradient>
  </defs>
  <rect x="64" y="64" width="896" height="896" rx="214" fill="url(#bgR2)"/>
  <rect x="232" y="250" width="232" height="294" rx="68" fill="#FFFFFF"/>
  <path d="M374 250V328C374 351.196 392.804 370 416 370H464" fill="#DBEAFE"/>
  <path d="M374 250V328C374 351.196 392.804 370 416 370H464" stroke="#3B82F6" stroke-width="18" stroke-linejoin="round"/>
  <rect x="290" y="396" width="110" height="24" rx="12" fill="#3B82F6"/>
  <rect x="290" y="450" width="144" height="24" rx="12" fill="#3B82F6"/>
  <path d="M432 382L742 310V696L432 624V382Z" fill="url(#beamR2)"/>
  <rect x="252" y="680" width="520" height="94" rx="47" fill="#0F3A69"/>
  <rect x="344" y="714" width="336" height="24" rx="12" fill="#CFE4FF" fill-opacity="0.65"/>
</svg>
