<svg width="1024" height="1024" viewBox="0 0 1024 1024" fill="none" xmlns="http://www.w3.org/2000/svg">
  <defs>
    <linearGradient id="bgFN1" x1="132" y1="110" x2="902" y2="922" gradientUnits="userSpaceOnUse">
      <stop stop-color="#EFF6FF"/>
      <stop offset="1" stop-color="#DBEAFE"/>
    </linearGradient>
    <linearGradient id="beamFN1" x1="438" y1="360" x2="742" y2="654" gradientUnits="userSpaceOnUse">
      <stop stop-color="#FFFFFF" stop-opacity="0.92"/>
      <stop offset="1" stop-color="#93C5FD" stop-opacity="0.08"/>
    </linearGradient>
  </defs>
  <rect x="64" y="64" width="896" height="896" rx="214" fill="url(#bgFN1)"/>
  <path d="M420 406L742 336V670L420 600V406Z" fill="url(#beamFN1)"/>
  <rect x="226" y="298" width="236" height="292" rx="70" fill="#FFFFFF"/>
  <path d="M370 298V374C370 396.091 387.909 414 410 414H462" fill="#DCEBFF"/>
  <path d="M370 298V374C370 396.091 387.909 414 410 414H462" stroke="#3B82F6" stroke-width="18" stroke-linejoin="round"/>
  <rect x="286" y="438" width="112" height="24" rx="12" fill="#3B82F6"/>
  <rect x="286" y="492" width="146" height="24" rx="12" fill="#3B82F6"/>
  <rect x="210" y="694" width="604" height="92" rx="46" fill="#123A66"/>
  <rect x="318" y="724" width="388" height="20" rx="10" fill="#DCEBFF" fill-opacity="0.72"/>
  <path d="M512 694V628" stroke="#123A66" stroke-width="28" stroke-linecap="round"/>
  <circle cx="512" cy="612" r="28" fill="#123A66"/>
</svg>
