<svg width="1024" height="1024" viewBox="0 0 1024 1024" fill="none" xmlns="http://www.w3.org/2000/svg">
  <defs>
    <linearGradient id="bgFN4" x1="124" y1="110" x2="902" y2="920" gradientUnits="userSpaceOnUse">
      <stop stop-color="#F5F3FF"/>
      <stop offset="1" stop-color="#DDD6FE"/>
    </linearGradient>
    <linearGradient id="beamFN4" x1="440" y1="250" x2="706" y2="612" gradientUnits="userSpaceOnUse">
      <stop stop-color="#FFFFFF" stop-opacity="0.92"/>
      <stop offset="1" stop-color="#A78BFA" stop-opacity="0.08"/>
    </linearGradient>
  </defs>
  <rect x="64" y="64" width="896" height="896" rx="214" fill="url(#bgFN4)"/>
  <rect x="214" y="168" width="596" height="88" rx="44" fill="#4C1D95"/>
  <circle cx="298" cy="212" r="12" fill="#C4B5FD"/>
  <circle cx="342" cy="212" r="12" fill="#C4B5FD"/>
  <circle cx="386" cy="212" r="12" fill="#C4B5FD"/>
  <rect x="250" y="676" width="524" height="104" rx="52" fill="#4C1D95"/>
  <rect x="336" y="714" width="352" height="18" rx="9" fill="#E9D5FF" fill-opacity="0.72"/>
  <rect x="278" y="320" width="220" height="270" rx="66" fill="#FFFFFF"/>
  <path d="M412 320V392C412 413.539 429.461 431 451 431H498" fill="#E9D5FF"/>
  <path d="M412 320V392C412 413.539 429.461 431 451 431H498" stroke="#7C3AED" stroke-width="18" stroke-linejoin="round"/>
  <rect x="340" y="452" width="110" height="24" rx="12" fill="#7C3AED"/>
  <rect x="340" y="506" width="142" height="24" rx="12" fill="#7C3AED"/>
  <path d="M494 298L730 256V610L494 568V298Z" fill="url(#beamFN4)"/>
</svg>
