<svg width="1024" height="1024" viewBox="0 0 1024 1024" fill="none" xmlns="http://www.w3.org/2000/svg">
  <defs>
    <linearGradient id="bgS1" x1="128" y1="112" x2="900" y2="920" gradientUnits="userSpaceOnUse">
      <stop stop-color="#F8FAFC"/>
      <stop offset="1" stop-color="#DCEAF7"/>
    </linearGradient>
  </defs>
  <rect x="64" y="64" width="896" height="896" rx="214" fill="url(#bgS1)"/>
  <rect x="216" y="694" width="592" height="88" rx="44" fill="#123A66"/>
  <rect x="286" y="294" width="214" height="274" rx="66" fill="#FFFFFF"/>
  <path d="M416 294V366C416 387.539 433.461 405 455 405H500" fill="#D8E8FF"/>
  <path d="M416 294V366C416 387.539 433.461 405 455 405H500" stroke="#5B8EEB" stroke-width="18" stroke-linejoin="round"/>
  <path d="M488 420L720 364V618L488 562V420Z" fill="#FFFFFF" fill-opacity="0.74"/>
  <path d="M488 420L720 364V618L488 562V420Z" stroke="#8EB6F3" stroke-width="18" stroke-linejoin="round"/>
  <path d="M512 694V592" stroke="#123A66" stroke-width="28" stroke-linecap="round"/>
  <rect x="330" y="724" width="364" height="18" rx="9" fill="#D8E8FF" fill-opacity="0.7"/>
</svg>
