<svg width="1024" height="1024" viewBox="0 0 1024 1024" fill="none" xmlns="http://www.w3.org/2000/svg">
  <defs>
    <linearGradient id="bgAP3" x1="136" y1="110" x2="894" y2="920" gradientUnits="userSpaceOnUse">
      <stop stop-color="#FFF8F1"/>
      <stop offset="0.52" stop-color="#FCE7D6"/>
      <stop offset="1" stop-color="#EAD7FF"/>
    </linearGradient>
    <radialGradient id="glowAP3" cx="0" cy="0" r="1" gradientUnits="userSpaceOnUse" gradientTransform="translate(334 228) rotate(57) scale(344 418)">
      <stop stop-color="#FFFFFF" stop-opacity="0.96"/>
      <stop offset="1" stop-color="#FFFFFF" stop-opacity="0"/>
    </radialGradient>
    <linearGradient id="beamAP3" x1="430" y1="372" x2="756" y2="668" gradientUnits="userSpaceOnUse">
      <stop stop-color="#FFFFFF" stop-opacity="0.92"/>
      <stop offset="1" stop-color="#C4B5FD" stop-opacity="0.12"/>
    </linearGradient>
    <linearGradient id="deskAP3" x1="260" y1="684" x2="772" y2="786" gradientUnits="userSpaceOnUse">
      <stop stop-color="#7C3AED"/>
      <stop offset="1" stop-color="#5B21B6"/>
    </linearGradient>
  </defs>
  <rect x="64" y="64" width="896" height="896" rx="214" fill="url(#bgAP3)"/>
  <rect x="64" y="64" width="896" height="896" rx="214" fill="url(#glowAP3)"/>
  <path d="M426 406L762 336V690L426 624V406Z" fill="url(#beamAP3)"/>
  <rect x="218" y="706" width="588" height="82" rx="41" fill="url(#deskAP3)"/>
  <rect x="252" y="688" width="520" height="32" rx="16" fill="#E9D5FF" fill-opacity="0.32"/>
  <rect x="244" y="272" width="248" height="310" rx="74" fill="#FFFFFF"/>
  <path d="M394 272V350C394 373.196 412.804 392 436 392H492" fill="#F3E8FF"/>
  <path d="M394 272V350C394 373.196 412.804 392 436 392H492" stroke="#A78BFA" stroke-width="18" stroke-linejoin="round"/>
  <rect x="314" y="418" width="122" height="24" rx="12" fill="#8B5CF6"/>
  <rect x="314" y="472" width="154" height="24" rx="12" fill="#8B5CF6"/>
  <path d="M512 706V626" stroke="#5B21B6" stroke-width="28" stroke-linecap="round"/>
  <ellipse cx="512" cy="612" rx="44" ry="26" fill="#5B21B6"/>
</svg>
