<svg width="1024" height="1024" viewBox="0 0 1024 1024" fill="none" xmlns="http://www.w3.org/2000/svg">
  <defs>
    <linearGradient id="bgFN2" x1="130" y1="112" x2="900" y2="918" gradientUnits="userSpaceOnUse">
      <stop stop-color="#F8FAFC"/>
      <stop offset="1" stop-color="#E2E8F0"/>
    </linearGradient>
    <linearGradient id="panelFN2" x1="290" y1="308" x2="714" y2="634" gradientUnits="userSpaceOnUse">
      <stop stop-color="#FFFFFF"/>
      <stop offset="1" stop-color="#EEF6FF"/>
    </linearGradient>
  </defs>
  <rect x="64" y="64" width="896" height="896" rx="214" fill="url(#bgFN2)"/>
  <rect x="224" y="710" width="576" height="76" rx="38" fill="#0F3A69"/>
  <rect x="226" y="646" width="572" height="40" rx="20" fill="#BFDBFE" fill-opacity="0.45"/>
  <rect x="250" y="262" width="360" height="418" rx="96" fill="url(#panelFN2)"/>
  <path d="M470 262V346C470 372.51 491.49 394 518 394H610" fill="#DCEBFF"/>
  <path d="M470 262V346C470 372.51 491.49 394 518 394H610" stroke="#60A5FA" stroke-width="18" stroke-linejoin="round"/>
  <rect x="330" y="444" width="160" height="26" rx="13" fill="#60A5FA"/>
  <rect x="330" y="504" width="206" height="26" rx="13" fill="#60A5FA"/>
  <rect x="330" y="564" width="182" height="26" rx="13" fill="#60A5FA"/>
  <path d="M624 390L760 470" stroke="#7DD3FC" stroke-width="38" stroke-linecap="round" stroke-opacity="0.42"/>
  <path d="M624 470L760 470" stroke="#7DD3FC" stroke-width="38" stroke-linecap="round" stroke-opacity="0.18"/>
  <path d="M624 550L760 470" stroke="#7DD3FC" stroke-width="38" stroke-linecap="round" stroke-opacity="0.42"/>
</svg>
