<svg width="1024" height="1024" viewBox="0 0 1024 1024" fill="none" xmlns="http://www.w3.org/2000/svg">
  <defs>
    <linearGradient id="bgC4" x1="148" y1="118" x2="890" y2="916" gradientUnits="userSpaceOnUse">
      <stop stop-color="#2C3443"/>
      <stop offset="1" stop-color="#4B6B95"/>
    </linearGradient>
    <linearGradient id="beamC4" x1="564" y1="354" x2="794" y2="648" gradientUnits="userSpaceOnUse">
      <stop stop-color="#FFF7ED" stop-opacity="0.64"/>
      <stop offset="1" stop-color="#DBEAFE" stop-opacity="0.05"/>
    </linearGradient>
  </defs>
  <rect x="64" y="64" width="896" height="896" rx="214" fill="url(#bgC4)"/>
  <path d="M562 354L794 274V676L562 596V354Z" fill="url(#beamC4)"/>
  <rect x="252" y="378" width="266" height="266" rx="74" fill="#FFFDFB"/>
  <path d="M416 378V452C416 474.091 433.909 492 456 492H518" fill="#E8EEF9"/>
  <path d="M416 378V452C416 474.091 433.909 492 456 492H518" stroke="#AABFDF" stroke-width="18" stroke-linejoin="round"/>
  <rect x="320" y="474" width="118" height="24" rx="12" fill="#9CB5DA"/>
  <rect x="320" y="528" width="146" height="24" rx="12" fill="#9CB5DA"/>
  <rect x="260" y="668" width="282" height="58" rx="29" fill="#2F3D54" fill-opacity="0.78"/>
  <path d="M402 668V792" stroke="#FFF8F1" stroke-width="26" stroke-linecap="round"/>
  <path d="M336 792H468" stroke="#FFF8F1" stroke-width="26" stroke-linecap="round"/>
</svg>
