<svg width="1024" height="1024" viewBox="0 0 1024 1024" fill="none" xmlns="http://www.w3.org/2000/svg">
  <defs>
    <linearGradient id="bgC9" x1="118" y1="112" x2="904" y2="920" gradientUnits="userSpaceOnUse">
      <stop stop-color="#EDF4EA"/>
      <stop offset="1" stop-color="#D5E2D8"/>
    </linearGradient>
    <linearGradient id="beamC9" x1="564" y1="354" x2="794" y2="648" gradientUnits="userSpaceOnUse">
      <stop stop-color="#FFFFFF" stop-opacity="0.86"/>
      <stop offset="1" stop-color="#FFFFFF" stop-opacity="0.10"/>
    </linearGradient>
  </defs>
  <rect x="64" y="64" width="896" height="896" rx="214" fill="url(#bgC9)"/>
  <path d="M562 354L794 274V676L562 596V354Z" fill="url(#beamC9)"/>
  <rect x="252" y="378" width="266" height="266" rx="74" fill="#FFFFFF"/>
  <path d="M416 378V452C416 474.091 433.909 492 456 492H518" fill="#DCEBFF"/>
  <path d="M416 378V452C416 474.091 433.909 492 456 492H518" stroke="#2563EB" stroke-width="18" stroke-linejoin="round"/>
  <rect x="320" y="474" width="118" height="24" rx="12" fill="#1D4ED8"/>
  <rect x="320" y="528" width="146" height="24" rx="12" fill="#1D4ED8"/>
  <rect x="260" y="668" width="282" height="58" rx="29" fill="#1E3A5F" fill-opacity="0.94"/>
  <path d="M402 668V792" stroke="#FFFFFF" stroke-width="26" stroke-linecap="round"/>
  <path d="M336 792H468" stroke="#FFFFFF" stroke-width="26" stroke-linecap="round"/>
</svg>
