<svg width="1024" height="1024" viewBox="0 0 1024 1024" fill="none" xmlns="http://www.w3.org/2000/svg">
  <defs>
    <linearGradient id="bgFN5" x1="126" y1="108" x2="904" y2="920" gradientUnits="userSpaceOnUse">
      <stop stop-color="#FEF3C7"/>
      <stop offset="1" stop-color="#FCD34D"/>
    </linearGradient>
  </defs>
  <rect x="64" y="64" width="896" height="896" rx="214" fill="url(#bgFN5)"/>
  <rect x="220" y="704" width="584" height="76" rx="38" fill="#4338CA"/>
  <path d="M278 626L404 462" stroke="#4338CA" stroke-width="30" stroke-linecap="round"/>
  <path d="M404 462L736 534" stroke="#A78BFA" stroke-width="58" stroke-linecap="round" stroke-opacity="0.38"/>
  <rect x="236" y="278" width="236" height="288" rx="70" fill="#FFFFFF"/>
  <path d="M380 278V354C380 376.091 397.909 394 420 394H472" fill="#E0E7FF"/>
  <path d="M380 278V354C380 376.091 397.909 394 420 394H472" stroke="#4F46E5" stroke-width="18" stroke-linejoin="round"/>
  <rect x="294" y="420" width="114" height="24" rx="12" fill="#4F46E5"/>
  <rect x="294" y="474" width="146" height="24" rx="12" fill="#4F46E5"/>
  <circle cx="404" cy="462" r="34" fill="#4338CA"/>
  <rect x="330" y="730" width="364" height="18" rx="9" fill="#EDE9FE" fill-opacity="0.72"/>
</svg>
