<svg width="1024" height="1024" viewBox="0 0 1024 1024" fill="none" xmlns="http://www.w3.org/2000/svg">
  <defs>
    <linearGradient id="bgA" x1="180" y1="120" x2="844" y2="904" gradientUnits="userSpaceOnUse">
      <stop stop-color="#0F172A"/>
      <stop offset="0.55" stop-color="#155EEF"/>
      <stop offset="1" stop-color="#4CC9F0"/>
    </linearGradient>
    <linearGradient id="docA" x1="374" y1="268" x2="680" y2="706" gradientUnits="userSpaceOnUse">
      <stop stop-color="#FFFFFF"/>
      <stop offset="1" stop-color="#DCEBFF"/>
    </linearGradient>
  </defs>
  <rect x="64" y="64" width="896" height="896" rx="214" fill="url(#bgA)"/>
  <path d="M310 778C380 662 454 604 512 604C570 604 644 662 714 778" stroke="#A7F3FF" stroke-width="48" stroke-linecap="round"/>
  <path d="M374 250H589L682 343V706C682 738.033 656.033 764 624 764H374C341.967 764 316 738.033 316 706V308C316 276.967 341.967 250 374 250Z" fill="url(#docA)"/>
  <path d="M589 250V321C589 345.301 608.699 365 633 365H682" fill="#B6D4FF"/>
  <path d="M589 250V321C589 345.301 608.699 365 633 365H682" stroke="#8EB8FF" stroke-width="20" stroke-linejoin="round"/>
  <rect x="392" y="382" width="212" height="28" rx="14" fill="#9CC0FF"/>
  <rect x="392" y="448" width="168" height="28" rx="14" fill="#9CC0FF"/>
  <rect x="392" y="514" width="188" height="28" rx="14" fill="#9CC0FF"/>
  <path d="M394 738L430 670H594L630 738" fill="#07244D" fill-opacity="0.55"/>
  <path d="M394 738L430 670H594L630 738" stroke="#E0F2FF" stroke-width="24" stroke-linejoin="round"/>
</svg>
