<svg width="1024" height="1024" viewBox="0 0 1024 1024" fill="none" xmlns="http://www.w3.org/2000/svg">
  <defs>
    <linearGradient id="bgC8" x1="120" y1="108" x2="904" y2="920" gradientUnits="userSpaceOnUse">
      <stop stop-color="#F3E9DD"/>
      <stop offset="1" stop-color="#E5D5C4"/>
    </linearGradient>
    <linearGradient id="beamC8" x1="564" y1="354" x2="794" y2="648" gradientUnits="userSpaceOnUse">
      <stop stop-color="#FFFFFF" stop-opacity="0.86"/>
      <stop offset="1" stop-color="#FFFFFF" stop-opacity="0.08"/>
    </linearGradient>
  </defs>
  <rect x="64" y="64" width="896" height="896" rx="214" fill="url(#bgC8)"/>
  <path d="M562 354L794 274V676L562 596V354Z" fill="url(#beamC8)"/>
  <rect x="252" y="378" width="266" height="266" rx="74" fill="#FFFDFC"/>
  <path d="M416 378V452C416 474.091 433.909 492 456 492H518" fill="#E0E7FF"/>
  <path d="M416 378V452C416 474.091 433.909 492 456 492H518" stroke="#4F46E5" stroke-width="18" stroke-linejoin="round"/>
  <rect x="320" y="474" width="118" height="24" rx="12" fill="#4338CA"/>
  <rect x="320" y="528" width="146" height="24" rx="12" fill="#4338CA"/>
  <rect x="260" y="668" width="282" height="58" rx="29" fill="#3F3A74" fill-opacity="0.92"/>
  <path d="M402 668V792" stroke="#FFFDFC" stroke-width="26" stroke-linecap="round"/>
  <path d="M336 792H468" stroke="#FFFDFC" stroke-width="26" stroke-linecap="round"/>
</svg>
